# xmcd
#
# Track frame offsets: 
#        150
#        44317
#        58836
#        65940
#        99679
#        114061
#        146977
#
# Disc length: 2416 seconds
#
# Revision: 0
# Processed by: cddbd v1.5.2PL0 Copyright (c) Steve Scherf et al.
# Submitted via: ExactAudioCopy v1.0b1
#
DISCID=6a096e07
DTITLE=Terlingo Sacchi Blues Quintet - Freshmen
DYEAR=2014
DGENRE=Blues
TTITLE0=Locomotive Man, Pt. 1-2
TTITLE1=Johnny And Mag
TTITLE2=Song For M
TTITLE3=Anna
TTITLE4=Got The Blues
TTITLE5=Thoreau
TTITLE6=Locomotive Man, Pt. 3
EXTD=
EXTT0=
EXTT1=
EXTT2=
EXTT3=
EXTT4=
EXTT5=
EXTT6=
PLAYORDER=
